<svg fill="none" height="28" viewBox="0 0 42 28" width="42" xmlns="http://www.w3.org/2000/svg"><path d="m23 19h-4c-.5523 0-1-.4477-1-1v-4c0-.5523.4477-1 1-1h4c.5523 0 1 .4477 1 1v4c0 .5523-.4477 1-1 1z" stroke="#6f7d90" stroke-linecap="round" stroke-linejoin="round" stroke-width="2"/><g fill="#6f7d90"><path d="m39 10v-1h-2v1zm-14.7188 5h-1v2h1zm7.7188 2c3.866 0 7-3.134 7-7h-2c0 2.7614-2.2386 5-5 5zm-7.7188 0h7.7188v-2h-7.7188z"/><path d="m5 10v-1h-2v1zm12.75 7h1v-2h-1zm-7.75-2c-2.76142 0-5-2.2386-5-5h-2c0 3.866 3.13401 7 7 7zm0 2h7.75v-2h-7.75z"/><path d="m3 24c0 1.6569 1.34315 3 3 3v-2c-.55228 0-1-.4477-1-1zm34 0c0 .5523-.4477 1-1 1v2c1.6569 0 3-1.3431 3-3zm-1-18c.5523 0 1 .44772 1 1h2c0-1.65685-1.3431-3-3-3zm-30-2c-1.65685 0-3 1.34315-3 3h2c0-.55228.44772-1 1-1zm-1 20v-17h-2v17zm32-17v17h2v-17zm-1 18h-30v2h30zm-30-19h30v-2h-30z"/><path d="m16 5v-2h-2v2zm1-3h8v-2h-8zm9 1v2h2v-2zm-1-1c.5523 0 1 .44772 1 1h2c0-1.65685-1.3431-3-3-3zm-9 1c0-.55228.4477-1 1-1v-2c-1.6569 0-3 1.34315-3 3z"/></g></svg>